<svg width="24" height="24" viewBox="0 0 24 24" fill="none" xmlns="http://www.w3.org/2000/svg">
<path d="M13.5752 9.9873C14.1234 9.98735 14.5818 10.1661 14.9492 10.5225C15.3164 10.8788 15.5 11.3229 15.5 11.8545C15.5 12.5051 15.2517 13.1024 14.7559 13.6455C14.2601 14.1885 13.6972 14.7345 13.0674 15.2832L12.4727 15.8096C12.4085 15.8717 12.3336 15.917 12.249 15.9453C12.1646 15.9735 12.0815 15.9873 12 15.9873C11.9185 15.9873 11.8354 15.9735 11.751 15.9453C11.6664 15.917 11.5915 15.8717 11.5273 15.8096L10.9238 15.2744C10.3055 14.7256 9.74679 14.1809 9.24805 13.6406C8.74941 13.1004 8.50001 12.505 8.5 11.8545C8.5 11.3229 8.68358 10.8788 9.05078 10.5225C9.41824 10.1661 9.87656 9.98735 10.4248 9.9873C10.734 9.9873 11.0256 10.0514 11.2998 10.1787C11.574 10.306 11.8075 10.4796 12 10.7002C12.1925 10.4796 12.426 10.306 12.7002 10.1787C12.9744 10.0514 13.266 9.9873 13.5752 9.9873Z" fill="#333333"/>
<path fill-rule="evenodd" clip-rule="evenodd" d="M9.1748 4C9.44147 4 9.69583 4.05039 9.9375 4.15039C10.1791 4.25039 10.3919 4.3919 10.5752 4.5752L12 6H20C20.55 6 21.0204 6.19622 21.4121 6.58789C21.8038 6.97956 22 7.45 22 8V18C22 18.55 21.8038 19.0204 21.4121 19.4121C21.0204 19.8038 20.55 20 20 20H4C3.45 20 2.97956 19.8038 2.58789 19.4121C2.19622 19.0204 2 18.55 2 18V6C2 5.45 2.19622 4.97956 2.58789 4.58789C2.97956 4.19622 3.45 4 4 4H9.1748ZM4 18H20V8H11.1748L9.1748 6H4V18Z" fill="#333333"/>
</svg>
