<svg width="24" height="24" viewBox="0 0 24 24" fill="none" xmlns="http://www.w3.org/2000/svg">
<path d="M14.9295 8.37448L16.7965 6.50741C17.1871 6.11689 17.1871 5.48372 16.7965 5.0932L14.1098 2.40648C13.333 1.62968 12.0736 1.62968 11.2968 2.40648L4.34487 9.35828C3.56381 10.1393 3.56381 11.4057 4.34486 12.1867L8.02946 15.8713M11.2968 2.40648C10.6519 3.05135 10.6519 4.0969 11.2968 4.74178L19.079 12.524C19.8228 13.2678 19.8228 14.4738 19.079 15.2176C18.3351 15.9614 17.1292 15.9614 16.3854 15.2176L13.184 12.0163C12.8252 11.6574 12.2434 11.6574 11.8845 12.0163L8.02946 15.8713M8.02946 15.8713L6.80593 17.0948C6.4154 17.4854 6.4154 18.1185 6.80593 18.5091L9.17539 20.8785C10.347 22.0501 12.2465 22.0501 13.418 20.8785L18.895 15.4016" stroke="#007377" stroke-width="2" stroke-linecap="round" stroke-linejoin="round"/>
</svg>
